<?xml version="1.0" standalone="no"?><!DOCTYPE svg PUBLIC "-//W3C//DTD SVG 1.1//EN" "http://www.w3.org/Graphics/SVG/1.1/DTD/svg11.dtd"><svg t="1612419816315" class="icon" viewBox="0 0 1024 1024" version="1.1" xmlns="http://www.w3.org/2000/svg" p-id="3115" xmlns:xlink="http://www.w3.org/1999/xlink" width="32" height="32"><defs><style type="text/css"></style></defs><path d="M838.016 566.016q-15.008 0-25.504 10.496t-10.496 25.504v204q0 8-5.504 12.992t-12.512 4.992H216.992q-8 0-13.504-4.992t-5.504-12.992V219.008q0-8 5.504-13.504t13.504-5.504h254.016q15.008 0 25.504-10.496t10.496-24.992-10.496-24.992-25.504-10.496H216.992q-36.992 0-63.488 26.016t-26.496 64v587.008q0 36.992 26.496 63.488t63.488 26.496H784q36.992 0 63.488-26.496t26.496-63.488v-204q0-15.008-10.496-25.504t-25.504-10.496zM464 356q-44.992 68-54.016 136-2.016 15.008 7.008 26.496t23.008 13.504q2.016 0.992 4.992 0.992 12.992 0 23.488-8.992t12.512-22.016q0-4.992 3.008-17.504t14.016-40 27.008-50.496q70.016-103.008 206.016-104l3.008 0.992q15.008 0 25.504-10.496t10.496-25.504V212.96l100.992 95.008-100.992 84v-34.016q0-15.008-10.496-25.504t-25.504-10.496-25.504 10.496-10.496 25.504v111.008q0 22.016 20.992 32 7.008 3.008 15.008 3.008 12.992 0 23.008-8l190.016-158.016q12-11.008 12.992-26.016 0-16.992-11.008-28L759.04 102.944q-16.992-16-39.008-6.496t-22.016 32.512v91.008q-152 12.992-234.016 136z" p-id="3116" fill="#ffffff"></path></svg>